HIERARCHY
ROOT Hips
{
	OFFSET	0.00	0.00	0.00
	CHANNELS 6 Xposition Yposition Zposition Zrotation Xrotation Yrotation
	JOINT LeftUpLeg
	{
		OFFSET	 0.126116	-0.014019	-0.065224
		CHANNELS 3 Zrotation Xrotation Yrotation
		JOINT LeftLeg
		{
			OFFSET	 0.000000	 0.000000	 0.569914
			CHANNELS 3 Zrotation Xrotation Yrotation
			JOINT LeftFoot
			{
				OFFSET	 0.000000	 0.000000	 0.544423
				CHANNELS 3 Zrotation Xrotation Yrotation
				JOINT LeftToeBase
				{
					OFFSET	 0.000000	 0.000000	 0.207117
					CHANNELS 3 Zrotation Xrotation Yrotation
					End Site
					{
						OFFSET	 0.000000	 0.000000	 0.207117
					}
				}
			}
		}
	}
	JOINT RightUpLeg
	{
		OFFSET	-0.124023	-0.008373	-0.065224
		CHANNELS 3 Zrotation Xrotation Yrotation
		JOINT RightLeg
		{
			OFFSET	 0.000000	 0.000000	 0.570047
			CHANNELS 3 Zrotation Xrotation Yrotation
			JOINT RightFoot
			{
				OFFSET	 0.000000	 0.000000	 0.544354
				CHANNELS 3 Zrotation Xrotation Yrotation
				JOINT RightToeBase
				{
					OFFSET	 0.000000	 0.000000	 0.207540
					CHANNELS 3 Zrotation Xrotation Yrotation
					End Site
					{
						OFFSET	 0.000000	 0.000000	 0.207540
					}
				}
			}
		}
	}
	JOINT Spine
	{
		OFFSET	 0.000184	-0.007763	 0.117403
		CHANNELS 3 Zrotation Xrotation Yrotation
		JOINT Spine1
		{
			OFFSET	 0.000000	 0.000000	 0.137269
			CHANNELS 3 Zrotation Xrotation Yrotation
			JOINT Spine2
			{
				OFFSET	 0.000000	 0.000000	 0.156879
				CHANNELS 3 Zrotation Xrotation Yrotation
				JOINT LeftShoulder
				{
					OFFSET	 0.080501	-0.002496	 0.160144
					CHANNELS 3 Zrotation Xrotation Yrotation
					JOINT LeftArm
					{
						OFFSET	 0.000000	 0.000000	 0.164363
						CHANNELS 3 Zrotation Xrotation Yrotation
						JOINT LeftForeArm
						{
							OFFSET	 0.000000	 0.000000	 0.364576
							CHANNELS 3 Zrotation Xrotation Yrotation
							JOINT LeftHand
							{
								OFFSET	 0.000000	 0.000000	 0.360812
								CHANNELS 3 Zrotation Xrotation Yrotation
								JOINT LeftHandIndex1
								{
									OFFSET	 0.000000	 0.000000	 0.086006
									CHANNELS 3 Zrotation Xrotation Yrotation
									JOINT LeftHandIndex2
									{
										OFFSET	 0.000000	 0.000000	 0.047236
										CHANNELS 3 Zrotation Xrotation Yrotation
										JOINT LeftHandIndex3
										{
											OFFSET	-0.004284	-0.000551	 0.038166
											CHANNELS 3 Zrotation Xrotation Yrotation
											End Site
											{
												OFFSET	-0.004284	-0.000551	 0.038166
											}
										}
									}
								}
							}
						}
					}
				}
				JOINT Neck
				{
					OFFSET	 0.000000	 0.000000	 0.176489
					CHANNELS 3 Zrotation Xrotation Yrotation
					JOINT Head
					{
						OFFSET	 0.000000	-0.001747	 0.077940
						CHANNELS 3 Zrotation Xrotation Yrotation
						End Site
						{
							OFFSET	 0.000000	-0.001747	 0.077940
						}
					}
				}
				JOINT RightShoulder
				{
					OFFSET	-0.080363	 0.000306	 0.159706
					CHANNELS 3 Zrotation Xrotation Yrotation
					JOINT RightArm
					{
						OFFSET	 0.000000	 0.000000	 0.164196
						CHANNELS 3 Zrotation Xrotation Yrotation
						JOINT RightForeArm
						{
							OFFSET	 0.000000	 0.000000	 0.365611
							CHANNELS 3 Zrotation Xrotation Yrotation
							JOINT RightHand
							{
								OFFSET	 0.000000	 0.000000	 0.360648
								CHANNELS 3 Zrotation Xrotation Yrotation
								JOINT RightHandIndex1
								{
									OFFSET	 0.000000	 0.000000	 0.069977
									CHANNELS 3 Zrotation Xrotation Yrotation
									JOINT RightHandIndex2
									{
										OFFSET	 0.000000	 0.000000	 0.052305
										CHANNELS 3 Zrotation Xrotation Yrotation
										JOINT RightHandIndex3
										{
											OFFSET	 0.009002	-0.000782	 0.042196
											CHANNELS 3 Zrotation Xrotation Yrotation
											End Site
											{
												OFFSET	 0.009002	-0.000782	 0.042196
											}
										}
									}
								}
							}
						}
					}
				}
			}
		}
	}
}
MOTION
Frames:    7
Frame Time: 0.03333334
-0.044325	 0.237120	 1.020122	 3.800651	 33.650940	-8.529546	-26.029160	-84.880020	 158.816500	 7.739430	-74.465870	 7.861838	-31.028190	 77.626980	 39.432670	-2.385832	 28.452790	-0.000001	 86.651310	-74.126570	-102.236700	-21.583080	-78.380240	-16.117600	 63.481040	 75.098550	-58.546800	 2.384659	 28.388700	-0.000001	 2.194420	 15.685460	-0.108929	-1.450718	 23.227340	-0.136750	-7.394862	-2.414772	 4.764693	-99.116390	 68.195990	 156.941200	 10.003360	-2.893005	-42.276140	-5.192648	 10.728390	-33.509850	-25.964890	-24.983060	-18.862220	-2.027600	 6.559038	 9.033609	-5.188889	 0.308190	 3.541030	-5.234859	 0.342567	 0.430617	 0.241383	 16.979800	-5.718539	-6.742076	-26.974460	-4.101279	 97.402950	 64.634700	-159.259200	-5.115367	 3.354600	 50.136630	-6.669387	 0.530313	 28.366910	 9.668324	-23.971760	 14.451600	 1.803333	 3.979147	-15.098590	 4.898592	 3.004813	-9.310344	 5.224449	 0.395017	 2.014677
-0.043871	 0.236684	 1.026819	 3.660416	 33.126940	-8.241600	-24.891340	-83.705370	 160.103100	 7.112543	-73.616890	 7.226683	-30.306700	 77.349150	 38.639220	-2.385832	 28.452790	-0.000001	 82.439620	-74.026180	-106.550500	-20.612520	-77.478460	-15.115390	 62.059390	 74.990130	-56.962910	 2.384659	 28.388700	-0.000001	 2.359011	 15.720430	-0.198772	-1.259264	 23.532840	-0.376667	-7.514769	-2.908563	 4.599462	-98.931660	 68.316730	 157.327900	 9.872765	-1.931466	-42.669020	-4.987988	 10.732140	-33.883770	-26.854200	-26.544510	-19.413870	-2.027600	 6.559038	 9.033609	-5.188889	 0.308190	 3.541030	-5.234859	 0.342567	 0.430617	-0.062258	 14.959760	-5.010921	-6.978138	-24.883550	-4.269810	 97.291490	 64.501350	-159.671800	-5.344947	 3.268847	 50.301090	-6.404064	 0.683330	 28.707600	 10.198660	-25.458020	 15.296630	 1.803333	 3.979147	-15.098590	 4.898592	 3.004813	-9.310344	 5.224449	 0.395017	 2.014677
-0.043367	 0.236258	 1.033870	 3.558511	 32.582350	-7.977437	-24.181070	-82.470710	 161.020300	 6.630905	-72.691670	 6.731319	-29.513580	 77.014240	 37.707920	-2.385832	 28.452790	-0.000001	 78.074230	-73.829420	-110.976800	-19.732430	-76.526810	-14.201180	 60.466370	 74.864700	-55.221840	 2.384659	 28.388700	-0.000001	 2.514992	 15.765530	-0.275223	-1.038535	 23.813660	-0.636245	-7.653326	-3.402003	 4.427549	-98.675500	 68.578690	 157.729300	 9.819077	-0.803320	-43.189430	-4.773205	 10.707540	-34.213040	-27.851470	-28.242880	-20.104780	-2.027600	 6.559038	 9.033609	-5.188889	 0.308190	 3.541030	-5.234859	 0.342567	 0.430617	-0.328119	 12.720720	-4.466275	-7.130372	-22.587640	-4.276851	 97.160060	 64.287950	-160.206900	-5.636433	 3.062835	 50.512410	-6.176691	 0.822008	 29.125390	 10.660380	-26.918000	 16.171370	 1.803333	 3.979147	-15.098590	 4.898592	 3.004813	-9.310344	 5.224449	 0.395017	 2.014677
-0.042685	 0.235828	 1.041358	 3.455563	 31.994730	-7.704218	-23.517830	-81.157170	 161.907400	 6.179288	-71.704060	 6.265120	-28.697030	 76.659670	 36.752660	-2.385832	 28.452790	-0.000001	 73.522320	-73.506210	-115.586500	-18.923230	-75.510800	-13.354710	 58.856250	 74.724880	-53.442270	 2.384659	 28.388700	-0.000001	 2.665462	 15.794660	-0.354227	-0.807683	 24.038620	-0.890482	-7.796020	-3.880552	 4.245949	-98.412250	 68.853900	 158.142100	 9.878284	 0.448863	-43.671660	-4.552945	 10.679450	-34.549820	-28.974770	-30.112400	-20.894270	-2.027600	 6.559038	 9.033609	-5.188889	 0.308190	 3.541030	-5.234859	 0.342567	 0.430617	-0.575713	 10.417820	-3.924254	-7.266370	-20.231840	-4.265541	 97.021950	 64.074740	-160.750500	-6.017573	 2.900529	 50.625810	-5.953998	 0.967127	 29.661670	 11.242550	-28.520100	 17.112660	 1.803333	 3.979147	-15.098590	 4.898592	 3.004813	-9.310344	 5.224449	 0.395017	 2.014677
-0.041763	 0.235700	 1.049504	 3.297546	 31.311750	-7.365792	-22.852000	-79.698150	 162.771600	 5.760935	-70.631590	 5.830348	-27.853510	 76.303010	 35.727480	-2.385832	 28.452790	-0.000001	 68.648030	-73.026040	-120.559000	-18.220320	-74.369450	-12.606290	 57.308270	 74.553590	-51.712410	 2.384659	 28.388700	-0.000001	 2.754490	 15.830300	-0.426998	-0.621253	 24.253140	-1.104125	-7.927545	-4.467194	 4.021737	-97.962350	 69.492470	 158.595300	 10.207120	 2.093551	-44.298730	-4.317857	 10.593940	-34.778260	-30.342360	-32.083900	-22.067390	-2.027600	 6.559038	 9.033609	-5.188889	 0.308190	 3.541030	-5.234859	 0.342567	 0.430617	-0.776373	 7.548937	-3.314140	-7.428178	-17.354730	-4.312900	 96.846980	 64.196670	-161.095600	-6.503184	 3.365246	 50.572360	-6.036858	 0.941474	 30.239020	 11.786090	-30.175680	 17.866560	 1.803333	 3.979147	-15.098590	 4.898592	 3.004813	-9.310344	 5.224449	 0.395017	 2.014677
-0.040547	 0.235637	 1.058610	 3.141088	 30.592580	-7.031758	-22.082440	-78.115200	 163.758300	 5.344690	-69.383540	 5.394529	-26.889390	 75.879230	 34.572200	-2.385833	 28.452760	 0.000004	 63.671510	-72.338920	-125.612700	-17.494510	-73.056530	-11.827650	 55.623110	 74.337520	-49.822010	 2.384659	 28.388700	-0.000001	 2.827592	 15.819860	-0.491733	-0.437814	 24.385300	-1.301454	-8.059071	-5.011134	 3.795135	-97.517180	 70.127590	 159.042800	 10.684220	 3.825521	-44.819580	-4.073746	 10.524020	-35.068850	-31.842280	-34.138500	-23.346410	-2.027600	 6.559038	 9.033609	-5.188889	 0.308190	 3.541030	-5.234859	 0.342567	 0.430617	-0.943961	 4.708116	-2.723309	-7.567237	-14.510540	-4.339450	 96.675250	 64.317420	-161.441500	-7.071855	 3.855322	 50.363300	-6.121722	 0.917414	 30.945060	 12.426750	-31.921420	 18.676870	 1.803333	 3.979147	-15.098590	 4.898592	 3.004813	-9.310344	 5.224449	 0.395017	 2.014677
-0.039084	 0.235789	 1.068512	 2.970305	 29.807440	-6.655575	-21.403370	-76.392830	 164.649200	 5.050244	-67.995330	 5.070710	-25.910870	 75.426450	 33.339420	-2.385833	 28.452760	 0.000004	 58.656500	-71.461380	-130.705000	-16.874060	-71.578560	-11.142250	 53.887580	 74.076810	-47.838820	 2.384659	 28.388700	-0.000001	 2.893405	 15.824300	-0.568379	-0.239681	 24.494550	-1.534364	-8.175026	-5.572164	 3.590950	-96.873150	 71.155170	 159.477000	 11.318930	 5.908015	-45.626540	-3.819061	 10.422950	-35.307510	-33.587200	-36.333200	-24.757940	-2.027600	 6.559038	 9.033609	-5.188889	 0.308190	 3.541030	-5.234859	 0.342567	 0.430617	-1.084948	 1.711968	-2.376719	-7.630649	-11.537770	-4.144888	 96.359210	 64.823180	-161.845400	-7.672946	 4.811946	 50.342590	-6.277765	 0.848093	 31.683560	 13.294210	-34.014440	 19.566410	 1.803333	 3.979147	-15.098590	 4.898592	 3.004813	-9.310344	 5.224449	 0.395017	 2.014677
